<?xml version="1.0" encoding="utf-8"?>
<svg height="800px" width="800px" version="1.1" id="file_avi" xmlns="http://www.w3.org/2000/svg" viewBox="0 0 512 512" xml:space="preserve">
<style type="text/css">
  .st0{fill:#000000;}
  .label{fill:#000000;font-family:Arial, Helvetica, sans-serif;font-weight:800;letter-spacing:-2px;}
</style>
<g>
  <path class="st0" d="M378.413,0H208.297h-13.182L185.8,9.314L57.02,138.102l-9.314,9.314v13.176v265.514
		c0,47.36,38.528,85.895,85.896,85.895h244.811c47.353,0,85.881-38.535,85.881-85.895V85.896C464.294,38.528,425.766,0,378.413,0z
		 M432.497,426.105c0,29.877-24.214,54.091-54.084,54.091H133.602c-29.884,0-54.098-24.214-54.098-54.091V160.591h83.716
		c24.885,0,45.077-20.178,45.077-45.07V31.804h170.116c29.87,0,54.084,24.214,54.084,54.092V426.105z"/>
  <text class="label" x="256" y="330" text-anchor="middle" dominant-baseline="middle" font-size="96">AVI</text>
</g>
</svg>
